# xmcd
#
# Track frame offsets: 
#        150
#        18293
#        37285
#        56330
#        77035
#        96413
#        115378
#        141375
#        167235
#        187693
#        211748
#        230658
#        256033
#        282788
#        294013
#        317368
#
# Disc length: 4471 seconds
#
# Revision: 0
# Processed by: cddbd v1.5.2PL0 Copyright (c) Steve Scherf et al.
# Submitted via: ExactAudioCopyFreeDBPlugin 1.0
#
DISCID=d7117510
DTITLE=Linda Lewis - Live In Old Smokey
DYEAR=2005
DGENRE=Soul
TTITLE0=For Love's Sake
TTITLE1=I Don't Do Don't
TTITLE2=I'm In Love Again
TTITLE3=Waving
TTITLE4=Old Smokey
TTITLE5=I Keep A Wish
TTITLE6=Love Plateau
TTITLE7=Do You Know Dino ?
TTITLE8=Moon And I
TTITLE9=Far Cry
TTITLE10=Rock A Doodle Do
TTITLE11=Grandaddy's Calypso
TTITLE12=Sideway Shuffle
TTITLE13=Can't Help Lovin' That Man Of Mine
TTITLE14=Love Inside
TTITLE15=In The Heat
EXTD=
EXTT0=
EXTT1=
EXTT2=
EXTT3=
EXTT4=
EXTT5=
EXTT6=
EXTT7=
EXTT8=
EXTT9=
EXTT10=
EXTT11=
EXTT12=
EXTT13=
EXTT14=
EXTT15=
PLAYORDER=
